<svg id="visual" viewBox="0 0 1920 1080" width="1920" height="1080" xmlns="http://www.w3.org/2000/svg" xmlns:xlink="http://www.w3.org/1999/xlink" version="1.1"><rect x="0" y="0" width="1920" height="1080" fill="#fffdfd"></rect><defs><linearGradient id="grad1_0" x1="43.8%" y1="0%" x2="100%" y2="100%"><stop offset="14.444444444444446%" stop-color="#fffdfd" stop-opacity="1"></stop><stop offset="85.55555555555554%" stop-color="#fffdfd" stop-opacity="1"></stop></linearGradient></defs><defs><linearGradient id="grad2_0" x1="0%" y1="0%" x2="56.3%" y2="100%"><stop offset="14.444444444444446%" stop-color="#fffdfd" stop-opacity="1"></stop><stop offset="85.55555555555554%" stop-color="#fffdfd" stop-opacity="1"></stop></linearGradient></defs><g transform="translate(1920, 0)"><path d="M0 702C-90.6 682.8 -181.2 663.6 -259.1 625.5C-337 587.3 -402.1 530.2 -470.2 470.2C-538.3 410.3 -609.4 347.5 -648.6 268.6C-687.7 189.8 -694.8 94.9 -702 0L0 0Z" fill="#3b1e79"></path></g><g transform="translate(0, 1080)"><path d="M0 -702C96.8 -697.6 193.6 -693.2 268.6 -648.6C343.7 -604 397.1 -519.2 446.9 -446.9C496.7 -374.6 542.9 -314.7 584.8 -242.2C626.7 -169.8 664.4 -84.9 702 0L0 0Z" fill="#3b1e79"></path></g></svg>