<svg id="visual" viewBox="0 0 1920 600" width="1920" height="600" xmlns="http://www.w3.org/2000/svg" xmlns:xlink="http://www.w3.org/1999/xlink" version="1.1"><path d="M0 274L45.7 290.5C91.3 307 182.7 340 274.2 322.3C365.7 304.7 457.3 236.3 548.8 229.8C640.3 223.3 731.7 278.7 823 313.2C914.3 347.7 1005.7 361.3 1097 348.8C1188.3 336.3 1279.7 297.7 1371.2 268.2C1462.7 238.7 1554.3 218.3 1645.8 218.5C1737.3 218.7 1828.7 239.3 1874.3 249.7L1920 260L1920 0L1874.3 0C1828.7 0 1737.3 0 1645.8 0C1554.3 0 1462.7 0 1371.2 0C1279.7 0 1188.3 0 1097 0C1005.7 0 914.3 0 823 0C731.7 0 640.3 0 548.8 0C457.3 0 365.7 0 274.2 0C182.7 0 91.3 0 45.7 0L0 0Z" fill="#232a55" stroke-linecap="round" stroke-linejoin="miter"></path></svg>