<svg id="visual" viewBox="0 0 1920 600" width="1920" height="600" xmlns="http://www.w3.org/2000/svg" xmlns:xlink="http://www.w3.org/1999/xlink" version="1.1"><path d="M0 324L45.7 307.5C91.3 291 182.7 258 274.2 275.7C365.7 293.3 457.3 361.7 548.8 368.2C640.3 374.7 731.7 319.3 823 284.8C914.3 250.3 1005.7 236.7 1097 249.2C1188.3 261.7 1279.7 300.3 1371.2 329.8C1462.7 359.3 1554.3 379.7 1645.8 379.5C1737.3 379.3 1828.7 358.7 1874.3 348.3L1920 338L1920 601L1874.3 601C1828.7 601 1737.3 601 1645.8 601C1554.3 601 1462.7 601 1371.2 601C1279.7 601 1188.3 601 1097 601C1005.7 601 914.3 601 823 601C731.7 601 640.3 601 548.8 601C457.3 601 365.7 601 274.2 601C182.7 601 91.3 601 45.7 601L0 601Z" fill="#ffffff" stroke-linecap="round" stroke-linejoin="miter"></path></svg>